<svg width="28" height="28" viewBox="0 0 28 28" fill="none" xmlns="http://www.w3.org/2000/svg">
    <path d="M14 3.8147e-06C10.3008 0.0446332 6.76575 1.53396 4.14985 4.14986C1.53395 6.76575 0.0446294 10.3008 0 14C0.0446294 17.6992 1.53395 21.2343 4.14985 23.8502C6.76575 26.4661 10.3008 27.9554 14 28C17.6992 27.9554 21.2343 26.4661 23.8501 23.8502C26.466 21.2343 27.9554 17.6992 28 14C27.9554 10.3008 26.466 6.76575 23.8501 4.14986C21.2343 1.53396 17.6992 0.0446332 14 3.8147e-06V3.8147e-06ZM22 15H15V22H13V15H6V13H13V6H15V13H22V15Z" fill="#283618"/>
</svg>