<svg width="27" height="27" viewBox="0 0 27 27" fill="none" xmlns="http://www.w3.org/2000/svg">
    <path d="M14.3291 0.43653C14.2041 0.299039 14.0518 0.189184 13.8819 0.114011C13.712 0.0388377 13.5282 5.72205e-06 13.3424 5.72205e-06C13.1566 5.72205e-06 12.9729 0.0388377 12.803 0.114011C12.633 0.189184 12.4807 0.299039 12.3557 0.43653L0.355747 13.7699C0.178796 13.9606 0.0615385 14.199 0.0184273 14.4557C-0.0246839 14.7123 0.00823578 14.9759 0.113128 15.214C0.218021 15.4522 0.390302 15.6544 0.608735 15.7958C0.827168 15.9372 1.08221 16.0116 1.34241 16.0099H4.00908V25.3432C4.00908 25.6968 4.14956 26.036 4.3996 26.286C4.64965 26.5361 4.98879 26.6765 5.34241 26.6765H21.3424C21.696 26.6765 22.0352 26.5361 22.2852 26.286C22.5353 26.036 22.6757 25.6968 22.6757 25.3432V16.0099H25.3424C25.696 16.0099 26.0352 15.8694 26.2852 15.6193C26.5353 15.3693 26.6757 15.0302 26.6757 14.6765C26.6782 14.3415 26.5544 14.0178 26.3291 13.7699L14.3291 0.43653Z" fill="#283618"/>
</svg>