<svg width="26" height="26" viewBox="0 0 26 26" fill="none" xmlns="http://www.w3.org/2000/svg">
    <path d="M9.33333 18.6667C11.684 18.6667 13.8267 17.7867 15.4707 16.348L17.2533 20.0813C17.2533 20.0813 17.62 20.38 18.124 20.876C18.64 21.36 19.3187 22.0147 19.9693 22.6987L21.78 24.5547L22.5853 25.416L25.4133 22.588L24.552 21.7827L22.696 19.972C22.0715 19.3738 21.4637 18.7585 20.8733 18.1267C20.3773 17.6227 20.0787 17.256 20.0787 17.256L16.3453 15.4733C17.8405 13.7774 18.6659 11.5943 18.6667 9.33334C18.6667 4.188 14.4787 3.8147e-06 9.33333 3.8147e-06C4.188 3.8147e-06 0 4.188 0 9.33334C0 14.4787 4.188 18.6667 9.33333 18.6667Z" fill="#283618"/>
</svg>