<svg width="245" height="40" viewBox="0 0 245 40" fill="none" xmlns="http://www.w3.org/2000/svg">
    <path d="M37.984 9.60001H41.92L49.248 22.912L56.416 9.60001H60.352V32H56.032V17.824L51.328 26.336C51.008 26.912 50.6773 27.328 50.336 27.584C50.016 27.8187 49.6427 27.936 49.216 27.936H48L42.304 17.824V32H37.984V9.60001ZM70.4078 38.496C68.6798 38.496 67.2504 38.0053 66.1198 37.024C65.0104 36.064 64.3918 34.7947 64.2638 33.216H68.5518C68.5944 33.6853 68.7864 34.0587 69.1278 34.336C69.4691 34.6347 69.8958 34.784 70.4078 34.784H73.0318C73.6931 34.784 74.2264 34.5067 74.6318 33.952C75.0584 33.4187 75.2718 32.7147 75.2718 31.84V29.76C74.7811 30.4213 74.2158 30.944 73.5758 31.328C72.9571 31.6907 72.3384 31.872 71.7198 31.872H69.6078C67.9224 31.872 66.5678 31.3173 65.5438 30.208C64.5198 29.0773 64.0078 27.584 64.0078 25.728V16.032H68.3598V25.792C68.3598 26.496 68.5304 27.072 68.8718 27.52C69.2344 27.9467 69.7038 28.16 70.2798 28.16H72.1358C72.8398 28.16 73.4798 27.872 74.0558 27.296C74.6318 26.6987 75.0371 25.92 75.2718 24.96V16.032H79.6238V31.84C79.6238 33.1627 79.3464 34.3253 78.7917 35.328C78.2584 36.3307 77.4904 37.1093 76.4878 37.664C75.4851 38.2187 74.3331 38.496 73.0318 38.496H70.4078ZM95.7755 32C94.8582 32 94.1115 31.7227 93.5355 31.168C92.9595 30.6133 92.6715 29.888 92.6715 28.992V9.60001H103.808C105.834 9.60001 107.456 10.08 108.672 11.04C109.909 12 110.528 13.2907 110.528 14.912V16.512C110.528 17.216 110.346 17.888 109.984 18.528C109.642 19.168 109.152 19.6907 108.512 20.096V20.128C109.536 20.4907 110.357 21.0773 110.976 21.888C111.616 22.6987 111.936 23.6053 111.936 24.608V26.272C111.936 28.0213 111.296 29.4187 110.016 30.464C108.757 31.488 107.05 32 104.896 32H95.7755ZM103.808 18.88C104.49 18.88 105.045 18.6667 105.472 18.24C105.898 17.792 106.112 17.2053 106.112 16.48V15.392C106.112 14.7947 105.888 14.3253 105.44 13.984C104.992 13.6213 104.394 13.44 103.648 13.44H97.0875V18.88H103.808ZM104.576 28.16C105.514 28.16 106.24 27.9787 106.752 27.616C107.264 27.232 107.52 26.6987 107.52 26.016V24.608C107.52 23.9893 107.296 23.488 106.847 23.104C106.4 22.72 105.802 22.528 105.056 22.528H97.0875V28.16H104.576ZM120.813 32.256C119.469 32.256 118.275 32 117.229 31.488C116.205 30.9547 115.405 30.208 114.829 29.248C114.275 28.288 113.997 27.1787 113.997 25.92V22.176C113.997 20.9173 114.285 19.808 114.861 18.848C115.437 17.8667 116.237 17.1093 117.261 16.576C118.307 16.0427 119.501 15.776 120.845 15.776H123.725C125.069 15.776 126.253 16.0427 127.277 16.576C128.323 17.1093 129.133 17.8667 129.709 18.848C130.285 19.808 130.573 20.9173 130.573 22.176V25.92C130.573 27.1787 130.285 28.288 129.709 29.248C129.133 30.208 128.323 30.9547 127.277 31.488C126.253 32 125.059 32.256 123.693 32.256H120.813ZM123.629 28.512C124.419 28.512 125.048 28.2453 125.517 27.712C125.987 27.1573 126.221 26.4427 126.221 25.568V22.464C126.221 21.5893 125.987 20.8853 125.517 20.352C125.048 19.7973 124.429 19.52 123.661 19.52H120.909C120.141 19.52 119.523 19.7973 119.053 20.352C118.584 20.8853 118.349 21.5893 118.349 22.464V25.568C118.349 26.4427 118.584 27.1573 119.053 27.712C119.523 28.2453 120.131 28.512 120.877 28.512H123.629ZM139.813 32.256C138.469 32.256 137.275 32 136.229 31.488C135.205 30.9547 134.405 30.208 133.829 29.248C133.275 28.288 132.997 27.1787 132.997 25.92V22.176C132.997 20.9173 133.285 19.808 133.861 18.848C134.437 17.8667 135.237 17.1093 136.261 16.576C137.307 16.0427 138.501 15.776 139.845 15.776H142.725C144.069 15.776 145.253 16.0427 146.277 16.576C147.323 17.1093 148.133 17.8667 148.709 18.848C149.285 19.808 149.573 20.9173 149.573 22.176V25.92C149.573 27.1787 149.285 28.288 148.709 29.248C148.133 30.208 147.323 30.9547 146.277 31.488C145.253 32 144.059 32.256 142.693 32.256H139.813ZM142.629 28.512C143.419 28.512 144.048 28.2453 144.517 27.712C144.987 27.1573 145.221 26.4427 145.221 25.568V22.464C145.221 21.5893 144.987 20.8853 144.517 20.352C144.048 19.7973 143.429 19.52 142.661 19.52H139.909C139.141 19.52 138.523 19.7973 138.053 20.352C137.584 20.8853 137.349 21.5893 137.349 22.464V25.568C137.349 26.4427 137.584 27.1573 138.053 27.712C138.523 28.2453 139.131 28.512 139.877 28.512H142.629ZM163.677 32L158.685 25.6L156.989 27.296V32H152.637V9.60001H156.989V22.4L163.293 16.032H168.349L161.501 22.816L168.605 32H163.677ZM175.551 32.256C173.61 32.256 172.053 31.744 170.879 30.72C169.706 29.696 169.119 28.352 169.119 26.688H173.407C173.407 27.264 173.599 27.7333 173.983 28.096C174.389 28.4373 174.911 28.608 175.551 28.608H178.431C179.711 28.608 180.351 28.256 180.351 27.552V27.008C180.351 26.7947 180.245 26.6027 180.031 26.432C179.818 26.24 179.53 26.112 179.167 26.048L173.631 25.088C172.33 24.8747 171.295 24.416 170.527 23.712C169.781 22.9867 169.407 22.144 169.407 21.184V20.128C169.407 18.7627 169.962 17.696 171.071 16.928C172.202 16.16 173.77 15.776 175.775 15.776H178.271C180.063 15.776 181.503 16.256 182.591 17.216C183.701 18.1547 184.255 19.4027 184.255 20.96H179.967C179.967 20.4907 179.807 20.1173 179.487 19.84C179.189 19.5627 178.783 19.424 178.271 19.424H175.839C174.453 19.424 173.759 19.744 173.759 20.384V20.896C173.759 21.1307 173.845 21.3333 174.015 21.504C174.207 21.6533 174.474 21.76 174.815 21.824L180.639 22.88C181.855 23.0933 182.837 23.552 183.583 24.256C184.33 24.9387 184.703 25.7173 184.703 26.592V27.744C184.703 29.1307 184.127 30.2293 182.975 31.04C181.845 31.8507 180.33 32.256 178.431 32.256H175.551ZM187.45 9.60001H191.802V17.632C192.271 17.0773 192.847 16.6293 193.53 16.288C194.234 15.9467 194.906 15.776 195.546 15.776H197.53C199.236 15.776 200.602 16.3093 201.626 17.376C202.671 18.4427 203.194 19.8507 203.194 21.6V32H198.842V21.76C198.842 21.0987 198.66 20.5653 198.298 20.16C197.956 19.7547 197.508 19.552 196.954 19.552H194.97C194.223 19.552 193.551 19.8293 192.954 20.384C192.378 20.9173 191.994 21.6213 191.802 22.496V32H187.45V9.60001ZM212.908 32.256C211.564 32.256 210.369 32.0107 209.324 31.52C208.3 31.008 207.5 30.304 206.924 29.408C206.348 28.4907 206.06 27.4453 206.06 26.272V22.144C206.06 20.8853 206.348 19.776 206.924 18.816C207.5 17.856 208.3 17.1093 209.324 16.576C210.369 16.0427 211.564 15.776 212.908 15.776H215.468C217.516 15.776 219.158 16.352 220.396 17.504C221.633 18.656 222.252 20.192 222.252 22.112V25.504H210.412V26.272C210.412 26.976 210.636 27.5413 211.084 27.968C211.532 28.3947 212.14 28.608 212.908 28.608H215.404C216.15 28.608 216.748 28.448 217.196 28.128C217.665 27.7867 217.9 27.3493 217.9 26.816H222.188C222.188 27.8827 221.9 28.832 221.324 29.664C220.748 30.496 219.937 31.136 218.892 31.584C217.868 32.032 216.684 32.256 215.34 32.256H212.908ZM217.964 22.368V22.112C217.964 21.28 217.74 20.6187 217.292 20.128C216.844 19.616 216.246 19.36 215.5 19.36H212.908C212.14 19.36 211.521 19.6267 211.052 20.16C210.582 20.6933 210.348 21.3973 210.348 22.272V22.368H217.964ZM230.704 32C228.805 32 227.408 31.6053 226.512 30.816C225.637 30.0053 225.2 28.7573 225.2 27.072V9.60001H229.552V26.816C229.552 27.328 229.669 27.7013 229.904 27.936C230.138 28.1707 230.512 28.288 231.024 28.288H232.752V32H230.704ZM236.141 19.744H233.389V16.032H236.141V14.976C236.141 13.248 236.685 11.904 237.773 10.944C238.882 9.96267 240.418 9.47201 242.381 9.47201H244.685V13.184H242.445C241.762 13.184 241.261 13.3333 240.941 13.632C240.642 13.9307 240.493 14.4 240.493 15.04V16.032H244.333V19.744H240.493V32H236.141V19.744Z"
          fill="#283618"/>
    <path d="M4.20838 5.23595L13.2755 28.5337L31.0249 27.6843L21.9558 4.38678L4.20838 5.23595ZM3.08038 5.50612C1.36053 6.5925 0.265702 9.6771 0.857069 11.1727L1.17704 11.9649C1.199 11.8367 1.22251 11.7082 1.24849 11.5796C1.60029 9.84494 2.36687 8.09777 3.68141 7.04956L3.08038 5.50612ZM4.17195 8.30868C3.26848 9.14769 2.6547 10.5183 2.36788 11.9327C2.1816 12.851 2.14952 13.7852 2.22047 14.55L8.6053 30.3739C8.61734 30.3331 8.62835 30.292 8.64093 30.2512C9.08129 28.8206 9.93062 27.39 11.2283 26.4412L4.17192 8.3089L4.17195 8.30868ZM11.7132 27.6878C10.7382 28.4705 10.0761 29.6044 9.72658 30.74C9.5412 31.3423 9.45775 31.941 9.44921 32.4672L10.6004 35.3193L10.7001 35.3141C10.1794 33.4294 10.7541 31.0059 12.3484 29.3176L11.7132 27.6877L11.7132 27.6878ZM13.6635 29.8296C11.8729 31.3096 11.397 33.8765 11.8939 35.2636L29.6942 34.4959C29.2895 33.9992 28.9815 33.3207 28.8758 32.5854L27.4254 32.1502L30.1544 31.2477L29.2025 30.4667C29.4693 29.9374 29.8956 29.4414 30.5194 29.0239L13.6635 29.8295L13.6635 29.8296Z"
          fill="#283618"/>
</svg>
