<svg width="245" height="40" viewBox="0 0 245 40" fill="none" xmlns="http://www.w3.org/2000/svg">
    <path d="M41.088 32C40.1707 32 39.424 31.7227 38.848 31.168C38.272 30.6133 37.984 29.888 37.984 28.992V9.60001H49.12C51.1467 9.60001 52.768 10.08 53.984 11.04C55.2213 12 55.84 13.2907 55.84 14.912V16.512C55.84 17.216 55.6587 17.888 55.296 18.528C54.9547 19.168 54.464 19.6907 53.824 20.096V20.128C54.848 20.4907 55.6693 21.0773 56.288 21.888C56.928 22.6987 57.248 23.6053 57.248 24.608V26.272C57.248 28.0213 56.608 29.4187 55.328 30.464C54.0693 31.488 52.3627 32 50.208 32H41.088ZM49.12 18.88C49.8027 18.88 50.3573 18.6667 50.784 18.24C51.2107 17.792 51.424 17.2053 51.424 16.48V15.392C51.424 14.7947 51.2 14.3253 50.752 13.984C50.304 13.6213 49.7067 13.44 48.96 13.44H42.4V18.88H49.12ZM49.888 28.16C50.8267 28.16 51.552 27.9787 52.064 27.616C52.576 27.232 52.832 26.6987 52.832 26.016V24.608C52.832 23.9893 52.608 23.488 52.16 23.104C51.712 22.72 51.1147 22.528 50.368 22.528H42.4V28.16H49.888ZM66.1258 32.256C64.7818 32.256 63.5871 32 62.5418 31.488C61.5178 30.9547 60.7178 30.208 60.1418 29.248C59.5871 28.288 59.3098 27.1787 59.3098 25.92V22.176C59.3098 20.9173 59.5978 19.808 60.1738 18.848C60.7498 17.8667 61.5498 17.1093 62.5738 16.576C63.6191 16.0427 64.8138 15.776 66.1578 15.776H69.0378C70.3818 15.776 71.5658 16.0427 72.5898 16.576C73.6351 17.1093 74.4458 17.8667 75.0218 18.848C75.5978 19.808 75.8858 20.9173 75.8858 22.176V25.92C75.8858 27.1787 75.5978 28.288 75.0218 29.248C74.4458 30.208 73.6351 30.9547 72.5898 31.488C71.5658 32 70.3711 32.256 69.0058 32.256H66.1258ZM68.9418 28.512C69.7311 28.512 70.3604 28.2453 70.8298 27.712C71.2991 27.1573 71.5338 26.4427 71.5338 25.568V22.464C71.5338 21.5893 71.2991 20.8853 70.8298 20.352C70.3604 19.7973 69.7418 19.52 68.9738 19.52H66.2218C65.4538 19.52 64.8351 19.7973 64.3658 20.352C63.8964 20.8853 63.6618 21.5893 63.6618 22.464V25.568C63.6618 26.4427 63.8964 27.1573 64.3658 27.712C64.8351 28.2453 65.4431 28.512 66.1898 28.512H68.9418ZM85.1258 32.256C83.7818 32.256 82.5871 32 81.5418 31.488C80.5178 30.9547 79.7178 30.208 79.1418 29.248C78.5871 28.288 78.3098 27.1787 78.3098 25.92V22.176C78.3098 20.9173 78.5978 19.808 79.1738 18.848C79.7498 17.8667 80.5498 17.1093 81.5738 16.576C82.6191 16.0427 83.8138 15.776 85.1578 15.776H88.0378C89.3818 15.776 90.5658 16.0427 91.5898 16.576C92.6351 17.1093 93.4458 17.8667 94.0218 18.848C94.5978 19.808 94.8858 20.9173 94.8858 22.176V25.92C94.8858 27.1787 94.5978 28.288 94.0218 29.248C93.4458 30.208 92.6351 30.9547 91.5898 31.488C90.5658 32 89.3711 32.256 88.0058 32.256H85.1258ZM87.9418 28.512C88.7311 28.512 89.3604 28.2453 89.8298 27.712C90.2991 27.1573 90.5338 26.4427 90.5338 25.568V22.464C90.5338 21.5893 90.2991 20.8853 89.8298 20.352C89.3604 19.7973 88.7418 19.52 87.9738 19.52H85.2218C84.4538 19.52 83.8351 19.7973 83.3658 20.352C82.8964 20.8853 82.6618 21.5893 82.6618 22.464V25.568C82.6618 26.4427 82.8964 27.1573 83.3658 27.712C83.8351 28.2453 84.4431 28.512 85.1898 28.512H87.9418ZM108.99 32L103.998 25.6L102.302 27.296V32H97.9498V9.60001H102.302V22.4L108.606 16.032H113.662L106.814 22.816L113.918 32H108.99ZM138.999 32L131.607 22.592L129.463 24.896V32H125.047V9.60001H129.463V19.264L138.359 9.60001H143.799L134.583 19.424L144.375 32H138.999ZM151.533 32.256C150.189 32.256 148.994 32.0107 147.949 31.52C146.925 31.008 146.125 30.304 145.549 29.408C144.973 28.4907 144.685 27.4453 144.685 26.272V22.144C144.685 20.8853 144.973 19.776 145.549 18.816C146.125 17.856 146.925 17.1093 147.949 16.576C148.994 16.0427 150.189 15.776 151.533 15.776H154.093C156.141 15.776 157.783 16.352 159.021 17.504C160.258 18.656 160.877 20.192 160.877 22.112V25.504H149.037V26.272C149.037 26.976 149.261 27.5413 149.709 27.968C150.157 28.3947 150.765 28.608 151.533 28.608H154.029C154.775 28.608 155.373 28.448 155.821 28.128C156.29 27.7867 156.525 27.3493 156.525 26.816H160.813C160.813 27.8827 160.525 28.832 159.949 29.664C159.373 30.496 158.562 31.136 157.517 31.584C156.493 32.032 155.309 32.256 153.965 32.256H151.533ZM156.589 22.368V22.112C156.589 21.28 156.365 20.6187 155.917 20.128C155.469 19.616 154.871 19.36 154.125 19.36H151.533C150.765 19.36 150.146 19.6267 149.677 20.16C149.207 20.6933 148.973 21.3973 148.973 22.272V22.368H156.589ZM170.033 32.256C168.689 32.256 167.494 32.0107 166.449 31.52C165.425 31.008 164.625 30.304 164.049 29.408C163.473 28.4907 163.185 27.4453 163.185 26.272V22.144C163.185 20.8853 163.473 19.776 164.049 18.816C164.625 17.856 165.425 17.1093 166.449 16.576C167.494 16.0427 168.689 15.776 170.033 15.776H172.593C174.641 15.776 176.283 16.352 177.521 17.504C178.758 18.656 179.377 20.192 179.377 22.112V25.504H167.537V26.272C167.537 26.976 167.761 27.5413 168.209 27.968C168.657 28.3947 169.265 28.608 170.033 28.608H172.529C173.275 28.608 173.873 28.448 174.321 28.128C174.79 27.7867 175.025 27.3493 175.025 26.816H179.313C179.313 27.8827 179.025 28.832 178.449 29.664C177.873 30.496 177.062 31.136 176.017 31.584C174.993 32.032 173.809 32.256 172.465 32.256H170.033ZM175.089 22.368V22.112C175.089 21.28 174.865 20.6187 174.417 20.128C173.969 19.616 173.371 19.36 172.625 19.36H170.033C169.265 19.36 168.646 19.6267 168.177 20.16C167.707 20.6933 167.473 21.3973 167.473 22.272V22.368H175.089ZM182.325 16.032H186.357V17.76C186.805 17.1627 187.37 16.6827 188.053 16.32C188.757 15.9573 189.439 15.776 190.101 15.776H192.117C193.397 15.776 194.527 16.0427 195.509 16.576C196.49 17.088 197.247 17.8133 197.781 18.752C198.314 19.6907 198.581 20.768 198.581 21.984V25.568C198.581 26.8907 198.314 28.064 197.781 29.088C197.247 30.0907 196.501 30.8693 195.541 31.424C194.581 31.9787 193.471 32.256 192.213 32.256H190.133C189.535 32.256 188.917 32.1173 188.277 31.84C187.658 31.5627 187.125 31.1893 186.677 30.72V38.4H182.325V16.032ZM191.637 28.512C192.426 28.512 193.055 28.2133 193.525 27.616C193.994 27.0187 194.229 26.2293 194.229 25.248V22.304C194.229 21.472 193.983 20.8 193.493 20.288C193.023 19.776 192.394 19.52 191.605 19.52H189.653C189.034 19.52 188.447 19.776 187.893 20.288C187.338 20.7787 186.933 21.4187 186.677 22.208V25.376C186.783 26.3147 187.103 27.072 187.637 27.648C188.191 28.224 188.863 28.512 189.653 28.512H191.637ZM207.845 32.256C206.501 32.256 205.307 32.0107 204.261 31.52C203.237 31.008 202.437 30.304 201.861 29.408C201.285 28.4907 200.997 27.4453 200.997 26.272V22.144C200.997 20.8853 201.285 19.776 201.861 18.816C202.437 17.856 203.237 17.1093 204.261 16.576C205.307 16.0427 206.501 15.776 207.845 15.776H210.405C212.453 15.776 214.096 16.352 215.333 17.504C216.571 18.656 217.189 20.192 217.189 22.112V25.504H205.349V26.272C205.349 26.976 205.573 27.5413 206.021 27.968C206.469 28.3947 207.077 28.608 207.845 28.608H210.341C211.088 28.608 211.685 28.448 212.133 28.128C212.603 27.7867 212.837 27.3493 212.837 26.816H217.125C217.125 27.8827 216.837 28.832 216.261 29.664C215.685 30.496 214.875 31.136 213.829 31.584C212.805 32.032 211.621 32.256 210.277 32.256H207.845ZM212.901 22.368V22.112C212.901 21.28 212.677 20.6187 212.229 20.128C211.781 19.616 211.184 19.36 210.437 19.36H207.845C207.077 19.36 206.459 19.6267 205.989 20.16C205.52 20.6933 205.285 21.3973 205.285 22.272V22.368H212.901ZM220.137 16.032H224.169V18.08C224.575 17.4613 225.151 16.96 225.897 16.576C226.665 16.1707 227.465 15.968 228.297 15.968H230.473V19.744H228.297C227.167 19.744 226.249 20.0853 225.545 20.768C224.841 21.4507 224.489 22.3253 224.489 23.392V32H220.137V16.032Z" fill="#283618"/>
    <path d="M4.20838 5.23595L13.2755 28.5337L31.0249 27.6843L21.9558 4.38678L4.20838 5.23595ZM3.08038 5.50612C1.36053 6.5925 0.265702 9.6771 0.857069 11.1727L1.17704 11.9649C1.199 11.8367 1.22251 11.7082 1.24849 11.5796C1.60029 9.84494 2.36687 8.09777 3.68141 7.04956L3.08038 5.50612ZM4.17195 8.30868C3.26848 9.14769 2.6547 10.5183 2.36788 11.9327C2.1816 12.851 2.14952 13.7852 2.22047 14.55L8.6053 30.3739C8.61734 30.3331 8.62835 30.292 8.64093 30.2512C9.08129 28.8206 9.93062 27.39 11.2283 26.4412L4.17192 8.3089L4.17195 8.30868ZM11.7132 27.6878C10.7382 28.4705 10.0761 29.6044 9.72658 30.74C9.5412 31.3423 9.45775 31.941 9.44921 32.4672L10.6004 35.3193L10.7001 35.3141C10.1794 33.4294 10.7541 31.0059 12.3484 29.3176L11.7132 27.6877L11.7132 27.6878ZM13.6635 29.8296C11.8729 31.3096 11.397 33.8765 11.8939 35.2636L29.6942 34.4959C29.2895 33.9992 28.9815 33.3207 28.8758 32.5854L27.4254 32.1502L30.1544 31.2477L29.2025 30.4667C29.4693 29.9374 29.8956 29.4414 30.5194 29.0239L13.6635 29.8295L13.6635 29.8296Z" fill="#283618"/>
</svg>
